<?xml version="1.0" encoding="iso-8859-1"?>
<!-- Generator: Adobe Illustrator 16.0.0, SVG Export Plug-In . SVG Version: 6.00 Build 0)  -->
<!DOCTYPE svg PUBLIC "-//W3C//DTD SVG 1.1//EN" "http://www.w3.org/Graphics/SVG/1.1/DTD/svg11.dtd">
<svg version="1.1" id="Capa_1" xmlns="http://www.w3.org/2000/svg" xmlns:xlink="http://www.w3.org/1999/xlink" x="0px" y="0px"
	 width="369.522px" height="369.522px" viewBox="0 0 369.522 369.522" style="enable-background:new 0 0 369.522 369.522;"
	 xml:space="preserve">
<g>
	<g>
		<path fill="#507299" d="M327.174,134.63L134.186,327.609c-10.433,10.437-24.337,16.188-39.142,16.188c-14.802,0-28.691-5.752-39.127-16.188
			c-10.433-10.437-16.177-24.344-16.177-39.14c0-14.808,5.75-28.709,16.177-39.145L269.126,36.119
			c13.396-13.406,36.852-13.4,50.272,0c13.853,13.859,13.858,36.413,0,50.272L127.989,277.812
			c-5.657,5.656-15.577,5.675-21.239-0.012c-2.828-2.822-4.383-6.588-4.396-10.599c0-4.005,1.567-7.794,4.396-10.616
			l137.979-137.979c2.432-2.429,3.771-5.659,3.783-9.094c0-3.45-1.352-6.68-3.783-9.122c-4.876-4.863-13.307-4.863-18.183,0.016
			L88.562,238.39c-7.692,7.687-11.922,17.906-11.922,28.812c0,10.904,4.23,21.119,11.922,28.812
			c15.349,15.359,42.226,15.378,57.622,0l191.409-191.421c11.559-11.559,17.918-26.95,17.93-43.336
			c0-16.387-6.364-31.777-17.93-43.337C326.033,6.362,310.649,0,294.262,0c-16.381,0-31.777,6.362-43.349,17.918L37.722,231.124
			C22.425,246.413,14,266.78,14,288.47c0,21.678,8.425,42.046,23.722,57.334c15.288,15.295,35.632,23.719,57.328,23.719
			c21.681,0,42.052-8.424,57.349-23.719l192.958-192.973c2.438-2.423,3.777-5.651,3.789-9.095c0-3.438-1.351-6.665-3.776-9.094
			C340.505,129.772,332.062,129.772,327.174,134.63z"/>
	</g>
</g>
<g>
</g>
<g>
</g>
<g>
</g>
<g>
</g>
<g>
</g>
<g>
</g>
<g>
</g>
<g>
</g>
<g>
</g>
<g>
</g>
<g>
</g>
<g>
</g>
<g>
</g>
<g>
</g>
<g>
</g>
</svg>
